<svg xmlns="http://www.w3.org/2000/svg" xmlns:xlink="http://www.w3.org/1999/xlink" width="1249" height="938" viewBox="-50 -82 1249 938"><title>New Schematic</title><style type="text/css">
path, polyline, polygon {stroke-linejoin:round;}
path, polyline, polygon, line {stroke-linecap:round;}
rect, circle, ellipse, polyline, line, polygon, path {shape-rendering:crispEdges;}
</style>
<rect x="-50" y="-82" width="1249" height="938" fill="#FFFFFF" stroke="none"/><g><g><g display="none"><text x="572.640625" y="-3" fill="#000080" font-family="Arial" font-size="7pt" font-weight="" font-style="" dominant-baseline="" text-anchor="start">NO</text></g><g display="none"><text x="572.6484375" y="-13.703125" fill="#000080" font-family="Arial" font-size="7pt" font-weight="" font-style="" dominant-baseline="" text-anchor="start">.</text></g><path d="M 206 10 L 206 0 M 206 796 L 206 806 M 402 10 L 402 0 M 402 796 L 402 806 M 598 10 L 598 0 M 598 796 L 598 806 M 794 10 L 794 0 M 794 796 L 794 806 M 990 10 L 990 0 M 990 796 L 990 806 M 10 206 L 0 206 M 1139 206 L 1149 206 M 10 402 L 0 402 M 1139 402 L 1149 402 M 10 598 L 0 598 M 1139 598 L 1149 598 M 10 794 L 0 794 M 1139 794 L 1149 794" stroke="#880000" stroke-width="1" fill="none"/><g><text x="1.5" y="108" fill="#880000" font-family="Verdana" font-size="7pt" font-weight="" font-style="" dominant-baseline="" text-anchor="start" type="comment">A</text></g><g><text x="1140.5" y="108" fill="#880000" font-family="Verdana" font-size="7pt" font-weight="" font-style="" dominant-baseline="" text-anchor="start" type="comment">A</text></g><g><text x="1.5" y="304" fill="#880000" font-family="Verdana" font-size="7pt" font-weight="" font-style="" dominant-baseline="" text-anchor="start" type="comment">B</text></g><g><text x="1140.5" y="304" fill="#880000" font-family="Verdana" font-size="7pt" font-weight="" font-style="" dominant-baseline="" text-anchor="start" type="comment">B</text></g><g><text x="1.5" y="500" fill="#880000" font-family="Verdana" font-size="7pt" font-weight="" font-style="" dominant-baseline="" text-anchor="start" type="comment">C</text></g><g><text x="1140.5" y="500" fill="#880000" font-family="Verdana" font-size="7pt" font-weight="" font-style="" dominant-baseline="" text-anchor="start" type="comment">C</text></g><g><text x="1.5" y="696" fill="#880000" font-family="Verdana" font-size="7pt" font-weight="" font-style="" dominant-baseline="" text-anchor="start" type="comment">D</text></g><g><text x="1140.5" y="696" fill="#880000" font-family="Verdana" font-size="7pt" font-weight="" font-style="" dominant-baseline="" text-anchor="start" type="comment">D</text></g><g><text x="108" y="8.5" fill="#880000" font-family="Verdana" font-size="7pt" font-weight="" font-style="" dominant-baseline="" text-anchor="start" type="comment">1</text></g><g><text x="108" y="804.5" fill="#880000" font-family="Verdana" font-size="7pt" font-weight="" font-style="" dominant-baseline="" text-anchor="start" type="comment">1</text></g><g><text x="304" y="8.5" fill="#880000" font-family="Verdana" font-size="7pt" font-weight="" font-style="" dominant-baseline="" text-anchor="start" type="comment">2</text></g><g><text x="304" y="804.5" fill="#880000" font-family="Verdana" font-size="7pt" font-weight="" font-style="" dominant-baseline="" text-anchor="start" type="comment">2</text></g><g><text x="500" y="8.5" fill="#880000" font-family="Verdana" font-size="7pt" font-weight="" font-style="" dominant-baseline="" text-anchor="start" type="comment">3</text></g><g><text x="500" y="804.5" fill="#880000" font-family="Verdana" font-size="7pt" font-weight="" font-style="" dominant-baseline="" text-anchor="start" type="comment">3</text></g><g><text x="696" y="8.5" fill="#880000" font-family="Verdana" font-size="7pt" font-weight="" font-style="" dominant-baseline="" text-anchor="start" type="comment">4</text></g><g><text x="696" y="804.5" fill="#880000" font-family="Verdana" font-size="7pt" font-weight="" font-style="" dominant-baseline="" text-anchor="start" type="comment">4</text></g><g><text x="892" y="8.5" fill="#880000" font-family="Verdana" font-size="7pt" font-weight="" font-style="" dominant-baseline="" text-anchor="start" type="comment">5</text></g><g><text x="892" y="804.5" fill="#880000" font-family="Verdana" font-size="7pt" font-weight="" font-style="" dominant-baseline="" text-anchor="start" type="comment">5</text></g><rect x="10" y="10" width="1129" height="786" stroke="#880000" stroke-width="1" fill="none"/><rect x="0" y="0" width="1149" height="806" stroke="#880000" stroke-width="1" fill="none"/><rect x="739" y="716" width="400" height="80" stroke="#880000" stroke-width="1" fill="none"/><polyline points="739 756 1139 756" stroke="#880000" stroke-width="1" fill="none" stroke-linecap="round"/><polyline points="739 776 1139 776" stroke="#880000" stroke-width="1" fill="none" stroke-linecap="round"/><polyline points="1059 716 1059 756" stroke="#880000" stroke-width="1" fill="none" stroke-linecap="round"/><polyline points="1019 756 1019 776" stroke="#880000" stroke-width="1" fill="none" stroke-linecap="round"/><polyline points="934 776 934 796" stroke="#880000" stroke-width="1" fill="none" stroke-linecap="round"/><g><text x="744" y="728" fill="#880000" font-family="Verdana" font-size="8pt" font-weight="" font-style="" dominant-baseline="" text-anchor="start" type="comment">TITLE:</text></g><g><text x="749" y="746" fill="#0000FF" font-family="Verdana" font-size="10pt" font-weight="" font-style="" dominant-baseline="" text-anchor="start" type="comment">New Schematic</text></g><g><text x="1065" y="742" fill="#880000" font-family="Verdana" font-size="8pt" font-weight="" font-style="" dominant-baseline="" text-anchor="start" type="comment">REV:</text></g><g><text x="1096" y="743" fill="#0000FF" font-family="Verdana" font-size="9pt" font-weight="" font-style="" dominant-baseline="" text-anchor="start" type="comment">1.0</text></g><g><text x="744" y="771" fill="#880000" font-family="Verdana" font-size="8pt" font-weight="" font-style="" dominant-baseline="" text-anchor="start" type="comment">Date:</text></g><g><text x="794" y="771" fill="#0000FF" font-family="Verdana" font-size="9pt" font-weight="" font-style="" dominant-baseline="" text-anchor="start" type="comment">2017-06-29</text></g><g><text x="1024" y="771" fill="#880000" font-family="Verdana" font-size="8pt" font-weight="" font-style="" dominant-baseline="" text-anchor="start" type="comment">Sheet:</text></g><g><text x="1069" y="771" fill="#0000FF" font-family="Verdana" font-size="9pt" font-weight="" font-style="" dominant-baseline="" text-anchor="start" type="comment">1/1</text></g><g><text x="744" y="791" fill="#880000" font-family="Verdana" font-size="8pt" font-weight="" font-style="" dominant-baseline="" text-anchor="start" type="comment">EasyEDA V4.6.4</text></g><g><text x="944" y="791" fill="#880000" font-family="Verdana" font-size="8pt" font-weight="" font-style="" dominant-baseline="" text-anchor="start" type="comment">Drawn By:</text></g><g><text x="1009" y="791" fill="#0000FF" font-family="Verdana" font-size="9pt" font-weight="" font-style="" dominant-baseline="" text-anchor="start" type="comment">Your Name</text></g></g><g><g display="none"><text x="344.03125" y="277" font-family="Arial" font-size="7pt" fill="#000080" text-anchor="start">Raspberry Pi 3 Model B</text></g><g><text x="320.0078125" y="268.5" font-family="Arial" font-size="7pt" fill="#000080" text-anchor="start" dy="-1">Raspberry Pi 3</text></g><polyline points="320 280 320 390" stroke="#8D2323" stroke-width="2" fill="none" stroke-linecap="round"/><polyline points="320 390 380 390" stroke="#8D2323" stroke-width="2" fill="none" stroke-linecap="round"/><polyline points="380 390 380 280" stroke="#8D2323" stroke-width="2" fill="none" stroke-linecap="round"/><polyline points="380 280 320 280" stroke="#8D2323" stroke-width="2" fill="none" stroke-linecap="round"/><g><path d="M 310 290 h 10" fill="none" stroke="#8D2323" stroke-width="1"/><text x="323" y="293" font-family="Verdana" font-size="7pt" fill="#8D2323" text-anchor="start" display="none">VDD</text><text x="314" y="289" font-family="Verdana" font-size="7pt" fill="#8D2323" text-anchor="end" display="none">1</text><circle cx="317" cy="290" r="3" stroke="#8D2323" fill="none" stroke-width="1" display="none"/><path d="M 320 293 L 323 290 L 320 287" fill="none" stroke="#8D2323" stroke-width="1" display="none"/></g><g><path d="M 310 300 h 10" fill="none" stroke="#8D2323" stroke-width="1"/><text x="323" y="303" font-family="Verdana" font-size="7pt" fill="#8D2323" text-anchor="start" display="none">A5</text><text x="314" y="299" font-family="Verdana" font-size="7pt" fill="#8D2323" text-anchor="end" display="none">2</text><circle cx="317" cy="300" r="3" stroke="#8D2323" fill="none" stroke-width="1" display="none"/><path d="M 320 303 L 323 300 L 320 297" fill="none" stroke="#8D2323" stroke-width="1" display="none"/></g><g><path d="M 310 310 h 10" fill="none" stroke="#8D2323" stroke-width="1"/><text x="323" y="313" font-family="Verdana" font-size="7pt" fill="#8D2323" text-anchor="start" display="none">A4</text><text x="314" y="309" font-family="Verdana" font-size="7pt" fill="#8D2323" text-anchor="end" display="none">3</text><circle cx="317" cy="310" r="3" stroke="#8D2323" fill="none" stroke-width="1" display="none"/><path d="M 320 313 L 323 310 L 320 307" fill="none" stroke="#8D2323" stroke-width="1" display="none"/></g><g><path d="M 310 320 h 10" fill="none" stroke="#8D2323" stroke-width="1"/><text x="323" y="323" font-family="Verdana" font-size="7pt" fill="#8D2323" text-anchor="start" display="none">A3</text><text x="314" y="319" font-family="Verdana" font-size="7pt" fill="#8D2323" text-anchor="end" display="none">4</text><circle cx="317" cy="320" r="3" stroke="#8D2323" fill="none" stroke-width="1" display="none"/><path d="M 320 323 L 323 320 L 320 317" fill="none" stroke="#8D2323" stroke-width="1" display="none"/></g><g><path d="M 310 330 h 10" fill="none" stroke="#8D2323" stroke-width="1"/><text x="323" y="333" font-family="Verdana" font-size="7pt" fill="#8D2323" text-anchor="start" display="none">C5</text><text x="314" y="329" font-family="Verdana" font-size="7pt" fill="#8D2323" text-anchor="end" display="none">5</text><circle cx="317" cy="330" r="3" stroke="#8D2323" fill="none" stroke-width="1" display="none"/><path d="M 320 333 L 323 330 L 320 327" fill="none" stroke="#8D2323" stroke-width="1" display="none"/></g><g><path d="M 310 340 h 10" fill="none" stroke="#8D2323" stroke-width="1"/><text x="323" y="343" font-family="Verdana" font-size="7pt" fill="#8D2323" text-anchor="start" display="none">C4</text><text x="314" y="339" font-family="Verdana" font-size="7pt" fill="#8D2323" text-anchor="end" display="none">6</text><circle cx="317" cy="340" r="3" stroke="#8D2323" fill="none" stroke-width="1" display="none"/><path d="M 320 343 L 323 340 L 320 337" fill="none" stroke="#8D2323" stroke-width="1" display="none"/></g><g><path d="M 310 350 h 10" fill="none" stroke="#8D2323" stroke-width="1"/><text x="323" y="353" font-family="Verdana" font-size="7pt" fill="#8D2323" text-anchor="start" display="none">C3</text><text x="314" y="349" font-family="Verdana" font-size="7pt" fill="#8D2323" text-anchor="end" display="none">7</text><circle cx="317" cy="350" r="3" stroke="#8D2323" fill="none" stroke-width="1" display="none"/><path d="M 320 353 L 323 350 L 320 347" fill="none" stroke="#8D2323" stroke-width="1" display="none"/></g><g><path d="M 310 360 h 10" fill="none" stroke="#8D2323" stroke-width="1"/><text x="323" y="363" font-family="Verdana" font-size="7pt" fill="#8D2323" text-anchor="start" display="none">C6</text><text x="314" y="359" font-family="Verdana" font-size="7pt" fill="#8D2323" text-anchor="end" display="none">8</text><circle cx="317" cy="360" r="3" stroke="#8D2323" fill="none" stroke-width="1" display="none"/><path d="M 320 363 L 323 360 L 320 357" fill="none" stroke="#8D2323" stroke-width="1" display="none"/></g><g><path d="M 310 370 h 10" fill="none" stroke="#8D2323" stroke-width="1"/><text x="323" y="373" font-family="Verdana" font-size="7pt" fill="#8D2323" text-anchor="start" display="none">C7</text><text x="314" y="369" font-family="Verdana" font-size="7pt" fill="#8D2323" text-anchor="end" display="none">9</text><circle cx="317" cy="370" r="3" stroke="#8D2323" fill="none" stroke-width="1" display="none"/><path d="M 320 373 L 323 370 L 320 367" fill="none" stroke="#8D2323" stroke-width="1" display="none"/></g><g><path d="M 310 380 h 10" fill="none" stroke="#8D2323" stroke-width="1"/><text x="323" y="383" font-family="Verdana" font-size="7pt" fill="#8D2323" text-anchor="start" display="none">B7</text><text x="314" y="379" font-family="Verdana" font-size="7pt" fill="#8D2323" text-anchor="end" display="none">10</text><circle cx="317" cy="380" r="3" stroke="#8D2323" fill="none" stroke-width="1" display="none"/><path d="M 320 383 L 323 380 L 320 377" fill="none" stroke="#8D2323" stroke-width="1" display="none"/></g><g><path d="M 390 380 h -10" fill="none" stroke="#8D2323" stroke-width="1"/><text x="377" y="383" font-family="Verdana" font-size="7pt" fill="#8D2323" text-anchor="end" display="none">B6</text><text x="386" y="379" font-family="Verdana" font-size="7pt" fill="#8D2323" text-anchor="start" display="none">11</text><circle cx="383" cy="380" r="3" stroke="#8D2323" fill="none" stroke-width="1" display="none"/><path d="M 380 377 L 377 380 L 380 383" fill="none" stroke="#8D2323" stroke-width="1" display="none"/></g><g><path d="M 390 370 h -10" fill="none" stroke="#8D2323" stroke-width="1"/><text x="377" y="373" font-family="Verdana" font-size="7pt" fill="#8D2323" text-anchor="end" display="none">B5</text><text x="386" y="369" font-family="Verdana" font-size="7pt" fill="#8D2323" text-anchor="start" display="none">12</text><circle cx="383" cy="370" r="3" stroke="#8D2323" fill="none" stroke-width="1" display="none"/><path d="M 380 367 L 377 370 L 380 373" fill="none" stroke="#8D2323" stroke-width="1" display="none"/></g><g><path d="M 390 360 h -10" fill="none" stroke="#8D2323" stroke-width="1"/><text x="377" y="363" font-family="Verdana" font-size="7pt" fill="#8D2323" text-anchor="end" display="none">B4</text><text x="386" y="359" font-family="Verdana" font-size="7pt" fill="#8D2323" text-anchor="start" display="none">13</text><circle cx="383" cy="360" r="3" stroke="#8D2323" fill="none" stroke-width="1" display="none"/><path d="M 380 357 L 377 360 L 380 363" fill="none" stroke="#8D2323" stroke-width="1" display="none"/></g><g><path d="M 390 350 h -10" fill="none" stroke="#8D2323" stroke-width="1"/><text x="377" y="353" font-family="Verdana" font-size="7pt" fill="#8D2323" text-anchor="end" display="none">C2</text><text x="386" y="349" font-family="Verdana" font-size="7pt" fill="#8D2323" text-anchor="start" display="none">14</text><circle cx="383" cy="350" r="3" stroke="#8D2323" fill="none" stroke-width="1" display="none"/><path d="M 380 347 L 377 350 L 380 353" fill="none" stroke="#8D2323" stroke-width="1" display="none"/></g><g><path d="M 390 340 h -10" fill="none" stroke="#8D2323" stroke-width="1"/><text x="377" y="343" font-family="Verdana" font-size="7pt" fill="#8D2323" text-anchor="end" display="none">C1</text><text x="386" y="339" font-family="Verdana" font-size="7pt" fill="#8D2323" text-anchor="start" display="none">15</text><circle cx="383" cy="340" r="3" stroke="#8D2323" fill="none" stroke-width="1" display="none"/><path d="M 380 337 L 377 340 L 380 343" fill="none" stroke="#8D2323" stroke-width="1" display="none"/></g><g><path d="M 390 330 h -10" fill="none" stroke="#8D2323" stroke-width="1"/><text x="377" y="333" font-family="Verdana" font-size="7pt" fill="#8D2323" text-anchor="end" display="none">C0</text><text x="386" y="329" font-family="Verdana" font-size="7pt" fill="#8D2323" text-anchor="start" display="none">16</text><circle cx="383" cy="330" r="3" stroke="#8D2323" fill="none" stroke-width="1" display="none"/><path d="M 380 327 L 377 330 L 380 333" fill="none" stroke="#8D2323" stroke-width="1" display="none"/></g><g><path d="M 390 320 h -10" fill="none" stroke="#8D2323" stroke-width="1"/><text x="377" y="323" font-family="Verdana" font-size="7pt" fill="#8D2323" text-anchor="end" display="none">A2</text><text x="386" y="319" font-family="Verdana" font-size="7pt" fill="#8D2323" text-anchor="start" display="none">17</text><circle cx="383" cy="320" r="3" stroke="#8D2323" fill="none" stroke-width="1" display="none"/><path d="M 380 317 L 377 320 L 380 323" fill="none" stroke="#8D2323" stroke-width="1" display="none"/></g><g><path d="M 390 310 h -10" fill="none" stroke="#8D2323" stroke-width="1"/><text x="377" y="313" font-family="Verdana" font-size="7pt" fill="#8D2323" text-anchor="end" display="none">A1</text><text x="386" y="309" font-family="Verdana" font-size="7pt" fill="#8D2323" text-anchor="start" display="none">18</text><circle cx="383" cy="310" r="3" stroke="#8D2323" fill="none" stroke-width="1" display="none"/><path d="M 380 307 L 377 310 L 380 313" fill="none" stroke="#8D2323" stroke-width="1" display="none"/></g><g><path d="M 390 300 h -10" fill="none" stroke="#8D2323" stroke-width="1"/><text x="377" y="303" font-family="Verdana" font-size="7pt" fill="#8D2323" text-anchor="end" display="none">A0</text><text x="386" y="299" font-family="Verdana" font-size="7pt" fill="#8D2323" text-anchor="start" display="none">19</text><circle cx="383" cy="300" r="3" stroke="#8D2323" fill="none" stroke-width="1" display="none"/><path d="M 380 297 L 377 300 L 380 303" fill="none" stroke="#8D2323" stroke-width="1" display="none"/></g><g><path d="M 390 290 h -10" fill="none" stroke="#8D2323" stroke-width="1"/><text x="377" y="293" font-family="Verdana" font-size="7pt" fill="#8D2323" text-anchor="end" display="none">VSS</text><text x="386" y="289" font-family="Verdana" font-size="7pt" fill="#8D2323" text-anchor="start" display="none">20</text><circle cx="383" cy="290" r="3" stroke="#8D2323" fill="none" stroke-width="1" display="none"/><path d="M 380 287 L 377 290 L 380 293" fill="none" stroke="#8D2323" stroke-width="1" display="none"/></g><g><text x="330" y="290" fill="#8D2323" font-family="Verdana" font-size="4" font-weight=" " font-style=" " dominant-baseline=" " text-anchor="start" type="">VDD</text></g><g><text x="330" y="300" fill="#8D2323" font-family="Verdana" font-size="4" font-weight=" " font-style=" " dominant-baseline=" " text-anchor="start" type="">A5</text></g><g><text x="330" y="310" fill="#8D2323" font-family="Verdana" font-size="4" font-weight=" " font-style=" " dominant-baseline=" " text-anchor="start" type="">A4</text></g><g><text x="330" y="320" fill="#8D2323" font-family="Verdana" font-size="4" font-weight=" " font-style=" " dominant-baseline=" " text-anchor="start" type="">A3</text></g><g><text x="330" y="330" fill="#8D2323" font-family="Verdana" font-size="4" font-weight=" " font-style=" " dominant-baseline=" " text-anchor="start" type="">C5</text></g><g><text x="330" y="340" fill="#8D2323" font-family="Verdana" font-size="4" font-weight=" " font-style=" " dominant-baseline=" " text-anchor="start" type="">C4</text></g><g><text x="330" y="350" fill="#8D2323" font-family="Verdana" font-size="4" font-weight=" " font-style=" " dominant-baseline=" " text-anchor="start" type="">C3</text></g><g><text x="330" y="360" fill="#8D2323" font-family="Verdana" font-size="4" font-weight=" " font-style=" " dominant-baseline=" " text-anchor="start" type="">C6</text></g><g><text x="330" y="370" fill="#8D2323" font-family="Verdana" font-size="4" font-weight=" " font-style=" " dominant-baseline=" " text-anchor="start" type="">C7</text></g><g><text x="330" y="380" fill="#8D2323" font-family="Verdana" font-size="4" font-weight=" " font-style=" " dominant-baseline=" " text-anchor="start" type="">B7</text></g><g><text x="365" y="380" fill="#8D2323" font-family="Verdana" font-size="4" font-weight=" " font-style=" " dominant-baseline=" " text-anchor="start" type="">B6</text></g><g><text x="365" y="370" fill="#8D2323" font-family="Verdana" font-size="4" font-weight=" " font-style=" " dominant-baseline=" " text-anchor="start" type="">B5</text></g><g><text x="365" y="360" fill="#8D2323" font-family="Verdana" font-size="4" font-weight=" " font-style=" " dominant-baseline=" " text-anchor="start" type="">B4</text></g><g><text x="365" y="350" fill="#8D2323" font-family="Verdana" font-size="4" font-weight=" " font-style=" " dominant-baseline=" " text-anchor="start" type="">C2</text></g><g><text x="365" y="340" fill="#8D2323" font-family="Verdana" font-size="4" font-weight=" " font-style=" " dominant-baseline=" " text-anchor="start" type="">GPIO1</text></g><g><text x="365" y="330" fill="#8D2323" font-family="Verdana" font-size="4" font-weight=" " font-style=" " dominant-baseline=" " text-anchor="start" type="">GPIO16</text></g><g><text x="365" y="320" fill="#8D2323" font-family="Verdana" font-size="4" font-weight=" " font-style=" " dominant-baseline=" " text-anchor="start" type="">GPIO15</text></g><g><text x="365" y="310" fill="#8D2323" font-family="Verdana" font-size="4" font-weight=" " font-style=" " dominant-baseline=" " text-anchor="start" type="">Ground</text></g><g><text x="365" y="300" fill="#8D2323" font-family="Verdana" font-size="4" font-weight=" " font-style=" " dominant-baseline=" " text-anchor="start" type="">VDC</text></g><g><text x="365" y="290" fill="#8D2323" font-family="Verdana" font-size="4" font-weight=" " font-style=" " dominant-baseline=" " text-anchor="start" type="">VDC</text></g><g><text x="352" y="351" fill="#8D2323" font-family="Verdana" font-size="4" font-weight=" " font-style=" " dominant-baseline=" " text-anchor="start" type="" transform="rotate(270,352,351)">PIC16F690</text></g><g><text x="315" y="288" fill="#8D2323" font-family="Verdana" font-size="3" font-weight=" " font-style=" " dominant-baseline=" " text-anchor="start" type="">1</text></g></g><g><line x1="240" y1="-20" x2="250" y2="-30" stroke="#008800" stroke-width="1"/></g><polyline points="510 190 600 190" stroke="#000000" stroke-width="1" fill="none"/><polyline points="510 230 600 230" stroke="#000000" stroke-width="1" fill="none"/><g eelibtitle="HDR-IDC-2.54-2X3P" package-default="HDR-IDC-2.54-2X3P"><g display="none"><text x="534.296875" y="357" font-family="Arial" font-size="7pt" fill="#000080" text-anchor="start">HDR-IDC-2.54-2X3P</text></g><g><text x="540" y="348.5" font-family="Arial" font-size="7pt" fill="#000080" text-anchor="start" dy="-1">R</text></g><g><path d="M 500 370 h 20" fill="none" stroke="#880000" stroke-width="1"/><text x="522" y="373" font-family="Verdana" font-size="7pt" fill="#0000FF" text-anchor="start">VCC</text><text x="515" y="369" font-family="Verdana" font-size="7pt" fill="#0000FF" text-anchor="end">1</text><circle cx="517" cy="370" r="3" stroke="#880000" fill="none" stroke-width="1" display="none"/><path d="M 520 373 L 523 370 L 520 367" fill="none" stroke="#880000" stroke-width="1" display="none"/></g><g><path d="M 580 370 h -20" fill="none" stroke="#880000" stroke-width="1"/><text x="558" y="373" font-family="Verdana" font-size="7pt" fill="#0000FF" text-anchor="end">2</text><text x="565" y="369" font-family="Verdana" font-size="7pt" fill="#0000FF" text-anchor="start">2</text><circle cx="563" cy="370" r="3" stroke="#880000" fill="none" stroke-width="1" display="none"/><path d="M 560 367 L 557 370 L 560 373" fill="none" stroke="#880000" stroke-width="1" display="none"/></g><g><path d="M 500 380 h 20" fill="none" stroke="#880000" stroke-width="1"/><text x="522" y="383" font-family="Verdana" font-size="7pt" fill="#0000FF" text-anchor="start">GND</text><text x="515" y="379" font-family="Verdana" font-size="7pt" fill="#0000FF" text-anchor="end">3</text><circle cx="517" cy="380" r="3" stroke="#880000" fill="none" stroke-width="1" display="none"/><path d="M 520 383 L 523 380 L 520 377" fill="none" stroke="#880000" stroke-width="1" display="none"/></g><g><path d="M 580 380 h -20" fill="none" stroke="#880000" stroke-width="1"/><text x="558" y="383" font-family="Verdana" font-size="7pt" fill="#0000FF" text-anchor="end">COM</text><text x="565" y="379" font-family="Verdana" font-size="7pt" fill="#0000FF" text-anchor="start">4</text><circle cx="563" cy="380" r="3" stroke="#880000" fill="none" stroke-width="1" display="none"/><path d="M 560 377 L 557 380 L 560 383" fill="none" stroke="#880000" stroke-width="1" display="none"/></g><g><path d="M 500 390 h 20" fill="none" stroke="#880000" stroke-width="1"/><text x="522" y="393" font-family="Verdana" font-size="7pt" fill="#0000FF" text-anchor="start">PIN</text><text x="515" y="389" font-family="Verdana" font-size="7pt" fill="#0000FF" text-anchor="end">5</text><circle cx="517" cy="390" r="3" stroke="#880000" fill="none" stroke-width="1" display="none"/><path d="M 520 393 L 523 390 L 520 387" fill="none" stroke="#880000" stroke-width="1" display="none"/></g><g><path d="M 580 390 h -20" fill="none" stroke="#880000" stroke-width="1"/><text x="558" y="393" font-family="Verdana" font-size="7pt" fill="#0000FF" text-anchor="end">NO</text><text x="565" y="389" font-family="Verdana" font-size="7pt" fill="#0000FF" text-anchor="start">6</text><circle cx="563" cy="390" r="3" stroke="#880000" fill="none" stroke-width="1" display="none"/><path d="M 560 387 L 557 390 L 560 393" fill="none" stroke="#880000" stroke-width="1" display="none"/></g><rect x="520" y="360" width="40" height="40" stroke="#000000" stroke-width="1" fill="none"/></g><polyline points="390 340 410 340 410 390 500 390" stroke="#008800" stroke-width="1" fill="none"/><polyline points="390 300 410 300 410 190 510 190" stroke="#008800" stroke-width="1" fill="none"/><polyline points="390 310 430 310 430 230 510 230" stroke="#008800" stroke-width="1" fill="none"/><polyline points="500 370 500 190" stroke="#008800" stroke-width="1" fill="none"/><polyline points="500 380 480 380 480 190" stroke="#008800" stroke-width="1" fill="none"/><g eelibtitle="AXIAL-0.3 (1/8W) " package-default="AXIAL-0.3"><g><text x="686" y="222.34375" font-family="Arial" font-size="7pt" fill="#000080" text-anchor="start">fan</text></g><g display="none"><text x="686.0078125" y="213.2109375" font-family="Arial" font-size="7pt" fill="#000080" text-anchor="start">fan</text></g><rect x="676" y="200" width="8" height="20" stroke="#A00000" stroke-width="1" fill="none"/><g><path d="M 680 200 v -10" fill="none" stroke="#800" stroke-width="1"/><text x="680" y="204" font-family="Verdana" font-size="7pt" fill="#800" text-anchor="end" display="none" transform="rotate(270,680,204)">2</text><text x="676" y="196" font-family="Verdana" font-size="7pt" fill="#800" text-anchor="start" display="none" transform="rotate(270,676,196)">2</text><circle cx="660" cy="217" r="3" stroke="#800" fill="none" stroke-width="1" display="none"/><path d="M 657 220 L 660 223 L 663 220" fill="none" stroke="#800" stroke-width="1" display="none"/></g><g><path d="M 680 220 v 10" fill="none" stroke="#800" stroke-width="1"/><text x="680" y="216" font-family="Verdana" font-size="7pt" fill="#800" text-anchor="start" display="none" transform="rotate(270,680,216)">1</text><text x="676" y="224" font-family="Verdana" font-size="7pt" fill="#800" text-anchor="end" display="none" transform="rotate(270,676,224)">1</text><circle cx="660" cy="243" r="3" stroke="#800" fill="none" stroke-width="1" display="none"/><path d="M 663 240 L 660 237 L 657 240" fill="none" stroke="#800" stroke-width="1" display="none"/></g></g><g eelibtitle="Voltage Source" package-default="HDR1X2"><g display="none"><text x="692" y="382.25" font-family="Arial" font-size="7pt" fill="#000080" text-anchor="start">12V</text></g><g><text x="692.5" y="373.25" font-family="Arial" font-size="7pt" fill="#000080" text-anchor="start">12V</text></g><ellipse cx="680" cy="370" rx="10" ry="10" stroke="#880000" stroke-width="1" fill="none"/><g><path d="M 680 360 v -10" fill="none" stroke="#800" stroke-width="1"/><text x="680" y="362" font-family="Verdana" font-size="7pt" fill="#800" text-anchor="end" display="none" transform="rotate(270,680,362)">1</text><text x="676" y="356" font-family="Verdana" font-size="7pt" fill="#800" text-anchor="start" display="none" transform="rotate(270,676,356)">1</text><circle cx="680" cy="337" r="3" stroke="#800" fill="none" stroke-width="1" display="none"/><path d="M 677 340 L 680 343 L 683 340" fill="none" stroke="#800" stroke-width="1" display="none"/></g><polyline points="678 364 682 364" stroke="#880000" stroke-width="1" fill="none" stroke-linecap="round"/><polyline points="680 362 680 366" stroke="#880000" stroke-width="1" fill="none" stroke-linecap="round"/><g><path d="M 680 380 v 10" fill="none" stroke="#800" stroke-width="1"/><text x="680" y="376" font-family="Verdana" font-size="7pt" fill="#800" text-anchor="start" display="none" transform="rotate(270,680,376)">2</text><text x="676" y="384" font-family="Verdana" font-size="7pt" fill="#800" text-anchor="end" display="none" transform="rotate(270,676,384)">2</text><circle cx="680" cy="403" r="3" stroke="#800" fill="none" stroke-width="1" display="none"/><path d="M 683 400 L 680 397 L 677 400" fill="none" stroke="#800" stroke-width="1" display="none"/></g><polyline points="682 376 678 376" stroke="#880000" stroke-width="1" fill="none" stroke-linecap="round"/></g><g eelibtitle="(Screw Terminal)WJ2EDGVC-5.08-2P" package-default="WJ2EDGVC-5.08-2P"><g display="none"><text x="689.796875" y="267" font-family="Arial" font-size="7pt" fill="#000080" text-anchor="start">WJ2EDGVC-5.08-2P</text></g><g><text x="689.796875" y="258" font-family="Arial" font-size="7pt" fill="#000080" text-anchor="start">Control</text></g><rect x="690" y="270" rx="2" ry="2" width="23" height="32" stroke="#880000" stroke-width="1" fill="none"/><ellipse cx="693" cy="273" rx="1.5" ry="1.5" stroke="#880000" stroke-width="1" fill="#880000"/><g><path d="M 680 280 h 10" fill="none" stroke="#880000" stroke-width="1"/><text x="693.7" y="284" font-family="Verdana" font-size="7pt" fill="#0000FF" text-anchor="start">-</text><text x="689.5" y="279" font-family="Verdana" font-size="7pt" fill="#0000FF" text-anchor="end">-</text><circle cx="687" cy="280" r="3" stroke="#880000" fill="none" stroke-width="1" display="none"/><path d="M 690 283 L 693 280 L 690 277" fill="none" stroke="#880000" stroke-width="1" display="none"/></g><g><path d="M 680 290 h 10" fill="none" stroke="#880000" stroke-width="1"/><text x="693.7" y="294" font-family="Verdana" font-size="7pt" fill="#0000FF" text-anchor="start">+</text><text x="689.5" y="289" font-family="Verdana" font-size="7pt" fill="#0000FF" text-anchor="end">+</text><circle cx="687" cy="290" r="3" stroke="#880000" fill="none" stroke-width="1" display="none"/><path d="M 690 293 L 693 290 L 690 287" fill="none" stroke="#880000" stroke-width="1" display="none"/></g></g><polyline points="580 390 680 390" stroke="#008800" stroke-width="1" fill="none"/><polyline points="580 380 610 380 610 280 680 280" stroke="#008800" stroke-width="1" fill="none"/><polyline points="680 350 680 290" stroke="#008800" stroke-width="1" fill="none"/><polyline points="600 190 600 190 680 190" stroke="#008800" stroke-width="1" fill="none"/><polyline points="600 230 600 230 680 230" stroke="#008800" stroke-width="1" fill="none"/><g><circle cx="500" cy="190" r="2.5" fill="#CC0000" stroke-width="1"/></g><g><circle cx="480" cy="190" r="2.5" fill="#CC0000" stroke-width="1"/></g></g></svg>